<svg width="1197" height="1077" fill="none" xmlns="http://www.w3.org/2000/svg"><path d="M795.185 47.524c80.165 66.406 90.822 207.604 157.414 305.983 66.591 98.379 189.051 153.728 228.601 238.827 39.47 84.887-4.02 199.311-81.9 299.168-77.7 99.57-189.776 184.568-300.995 185.378-111.471.88-222.152-82.648-347.735-120.55-125.652-38.115-266.206-30.603-352.145-83.419-86.122-52.528-117.812-165.096-85.577-262.424 32.234-97.328 128.142-179.34 205.839-278.91 77.879-99.857 137.295-217.196 242-279.99 104.705-62.794 254.264-70.681 334.498-4.063z" fill="url(#paint0_linear)"/><defs><linearGradient id="paint0_linear" x1="40.148" y1="393.119" x2="811.822" y2="1075.54" gradientUnits="userSpaceOnUse"><stop stop-color="#FEA653"/><stop offset="1" stop-color="#F8B653"/></linearGradient></defs></svg>