<svg width="317" height="317" fill="none" xmlns="http://www.w3.org/2000/svg"><path d="M229.22 126.921c-37.814 10.298-73.878-33.96-47.784-60.053 11.254-11.255 29.431-12.557 44.554-6.108 34.927 14.896 35.701 57.324 3.23 66.161zm-29.68 19.734c28.864-28.863 86.383 11.372 66.998 46.829-8.834 16.153-31.822 21.578-52.438 10.088-23.113-12.874-30.786-40.691-14.56-56.917z" fill="#FFFEFD" fill-opacity=".2"/><path d="M105.114 67.075c-2.904 5.113-9.306 12.94-16.65 20.489-7.756 7.986-16.56 15.664-23.364 19.524-18.401 10.401-28.318 39.675-3.916 55.478 22.56 14.607 35.791-.74 56.782 13.493 21.204 14.394 43.026 9.754 55.215-3.779 11.28-12.526 14.305-32.671.923-52.367-14.265-20.983 1.063-34.174-13.544-56.723-15.803-24.434-45.066-14.424-55.446 3.885zm43.626 130.377c8.164-8.165 19.905-10.448 31.038-7.107 33.103 9.938 43.871 58.752 15.773 74.09-35.526 19.411-75.658-38.136-46.811-66.983z" fill="#FFFEFD" fill-opacity=".2"/><path d="M102.753 177.557c31.88 13.345 37.535 62.934 7.863 75.224-35.74 14.804-69.74-41.489-41.953-69.277 8.918-8.918 21.97-11.021 34.09-5.947z" fill="#FFFEFD" fill-opacity=".2"/></svg>