<svg width="367" height="314" fill="none" xmlns="http://www.w3.org/2000/svg"><path d="M73.344 113.818c51.808 29.658 42.985 116.229-13.211 116.229-24.237 0-45.212-18.187-54.552-41.438-21.569-53.701 23.284-100.264 67.763-74.791zm53.209 10.72c-62.16 0-80.772-105.363-21.717-122.685 26.906-7.89 57.501 11.04 67.328 45.646 11.025 38.787-10.666 77.039-45.611 77.039z" fill="#FAC663" fill-opacity=".15"/><path d="M142.54 312.086c8.632-2.382 23.953-3.917 39.99-4.138 16.951-.248 34.699.965 46.182 4.138 31.015 8.624 73.216-12.241 63.956-55.574-8.564-40.061-39.337-37.779-46.614-75.744-7.332-38.369-35.826-56.887-63.524-55.439-25.635 1.343-50.584 19.795-57.382 55.448-7.235 37.991-37.944 35.687-46.496 75.735-9.293 43.368 32.996 64.12 63.888 55.574zm93.413-187.545c-17.583 0-32.683-10.193-41.074-25.794-24.944-46.39 16.024-110.61 62.795-96.856 59.156 17.37 40.405 122.65-21.721 122.65z" fill="#FAC663" fill-opacity=".15"/><path d="M264.049 195.551c-19.959-48.746 27.35-108.288 72.533-89.554 54.426 22.565 30.422 119.886-29.421 119.886-19.205 0-35.526-11.802-43.112-30.332z" fill="#FAC663" fill-opacity=".15"/></svg>